# AST/ASF file generated using VICON BodyLanguage
# -----------------------------------------------
:version 1.10
:name VICON
:units
  mass 1.0
  length 0.45
  angle deg
:documentation
   .ast/.asf automatically generated from VICON data using
   VICON BodyBuilder and BodyLanguage model FoxedUp or BRILLIANT.MOD
:root
   order TX TY TZ RX RY RZ
   axis XYZ
   position 0 0 0  
   orientation 0 0 0 
:bonedata
  begin
     id 1 
     name lhipjoint
     direction 0.661853 -0.702389 0.261917 
     length 2.64193 
     axis 0 0 0  XYZ
  end
  begin
     id 2 
     name lfemur
     direction 0.34202 -0.939693 0  
     length 7.01722  
     axis 0 0 20  XYZ
    dof rx ry rz
    limits (-160.0 20.0)
           (-70.0 70.0)
           (-60.0 70.0)
  end
  begin
     id 3 
     name ltibia
     direction 0.34202 -0.939693 0   
     length 8.25008   
     axis 0 0 20   XYZ
    dof rx
    limits (-10.0 170.0)
  end
  begin
     id 4 
     name lfoot
     direction 0.0709916 -0.195048 0.978221   
     length 2.31941   
     axis -90 7.62852e-016 20   XYZ
    dof rx rz
    limits (-45.0 90.0)
           (-70.0 20.0)
  end
  begin
     id 5 
     name ltoes
     direction 1.53586e-011 -4.22017e-011 1   
     length 1.16486   
     axis -90 7.62852e-016 20   XYZ
    dof rx
    limits (-90.0 20.0)
  end
  begin
     id 6 
     name rhipjoint
     direction -0.638185 -0.721362 0.268992   
     length 2.57244  
     axis 0 0 0  XYZ 
  end
  begin
     id 7 
     name rfemur
     direction -0.34202 -0.939693 0   
     length 7.07017   
     axis 0 0 -20   XYZ
    dof rx ry rz
    limits (-160.0 20.0)
           (-70.0 70.0)
           (-70.0 60.0)
  end
  begin
     id 8 
     name rtibia
     direction -0.34202 -0.939693 0   
     length 8.20386   
     axis 0 0 -20   XYZ
    dof rx
    limits (-10.0 170.0)
 end
 begin
     id 9 
     name rfoot
     direction -0.0822429 -0.225961 0.970658   
     length 2.32215  
     axis -90 -7.62852e-016 -20   XYZ
    dof rx rz
    limits (-45.0 90.0)
           (-20.0 70.0)
  end
  begin
     id 10 
     name rtoes
     direction -1.53597e-011 -4.21689e-011 1   
     length 1.16333   
     axis -90 -7.62852e-016 -20   XYZ
    dof rx
    limits (-90.0 20.0)
  end
  begin
     id 11 
     name lowerback
     direction -0.0131557 0.998589 -0.0514484   
     length 2.14993   
     axis 0 0 0   XYZ
    dof rx ry rz
    limits (-20.0 45.0)
           (-30.0 30.0)
           (-30.0 30.0)
  end
  begin
     id 12 
     name upperback
     direction -0.000776481 0.999993 0.00352685   
     length 2.15301   
     axis 0 0 0   XYZ
    dof rx ry rz
    limits (-20.0 45.0)
           (-30.0 30.0)
           (-30.0 30.0)
  end
  begin
     id 13 
     name thorax
     direction 0.00438186 0.999609 0.0276143   
     length 2.15424   
     axis 0 0 0   XYZ
    dof rx ry rz
    limits (-20.0 45.0)
           (-30.0 30.0)
           (-30.0 30.0)
  end
  begin
     id 14 
     name lowerneck
     direction -0.0488006 0.998094 0.0377807   
     length 1.90481   
     axis 0 0 0   XYZ
    dof rx ry rz
    limits (-20.0 45.0)
           (-30.0 30.0)
           (-30.0 30.0)
  end
  begin
     id 15 
     name upperneck
     direction 0.0443769 0.990702 -0.12861   
     length 1.91305   
     axis 0 0 0   XYZ
    dof rx ry rz
    limits (-20.0 45.0)
           (-30.0 30.0)
           (-30.0 30.0)
  end
  begin
     id 16
     name head
     direction 0.0165599 0.998647 -0.0492982  
     length 1.92369  
     axis 0 0 0   XYZ
    dof rx ry rz
    limits (-20.0 45.0)
           (-30.0 30.0)
           (-30.0 30.0)
  end
  begin
     id 17 
     name lclavicle
     direction 0.911936 0.410197 -0.0105506  
     length 3.52622  
     axis 0 0 0   XYZ
    dof ry rz
    limits (-20.0 10.0)
           (0.0 20.0)
  end
  begin
     id 18 
     name lhumerus
     direction 1 -4.48974e-011 -2.48591e-028   
     length 5.47651   
     axis 180 -30 -90   XYZ
    dof rx ry rz
    limits (-60.0 90.0)
           (-90.0 90.0)
           (-90.0 90.0)
  end
  begin
     id 19
     name lradius
     direction 1 -4.48938e-011 -4.40099e-027   
     length 3.09058   
     axis 180 -30 -90   XYZ
    dof rx
    limits (-10.0 170.0)
  end
  begin
     id 20
     name lwrist
     direction 1 -4.49042e-011 -2.99852e-027   
     length 1.54529   
     axis 1.95339e-015 90 90   XYZ
    dof ry
    limits (-180.0 0.0)
 end
  begin
     id 21 
     name lhand
     direction 1 -4.48815e-011 -5.98193e-027   
     length 0.771611   
     axis 3.82337e-015 90 90   XYZ
    dof rx rz
    limits (-90.0 90.0)
           (-45.0 45.0)
  end
  begin
     id 22 
     name lfingers
     direction 1 -4.49034e-011 -1.1993e-026   
     length 0.622093   
     axis 7.64668e-015 90 90   XYZ
    dof rx
    limits (0.0 90.0)
  end
  begin
     id 23
     name lthumb
     direction 0.707107 -6.34867e-011 0.707107   
     length 0.893204   
     axis -90 45 -1.62303e-014   XYZ
    dof rx rz
    limits (-45.0 45.0)
           (-45.0 45.0)
  end
  begin
     id 24 
     name rclavicle
     direction -0.93442 0.355634 -0.0195692   
     length 3.62463  
     axis 0 0 0   XYZ 
    dof ry rz
    limits (-10.0 20.0)
           (-20.0 0.0)
  end
  begin
     id 25 
     name rhumerus
     direction -1 -4.48957e-011 -1.19147e-027  
     length 5.14182   
     axis 180 30 90   XYZ
    dof rx ry rz
    limits (-90.0 60.0)
           (-90.0 90.0)
           (-90.0 90.0)
  end
  begin
     id 26 
     name rradius
     direction -1 -4.48952e-011 -3.81062e-027   
     length 3.35565   
     axis 180 30 90   XYZ
    dof rx
    limits (-10.0 170.0)
  end
  begin
     id 27 
     name rwrist
     direction -1 -4.48973e-011 -2.99621e-027   
     length 1.67782   
     axis 1.95339e-015 -90 -90   XYZ
    dof ry
    limits (-180.0 0.0)
  end
  begin
     id 28
     name rhand
     direction -1 -4.48895e-011 -5.98727e-027   
     length 0.801042   
     axis 3.82337e-015 -90 -90   XYZ
    dof rx rz
    limits (-90.0 90.0)
           (-45.0 45.0)
  end
  begin
     id 29
     name rfingers
     direction -1 -4.49065e-011 -1.19972e-026   
     length 0.645821   
     axis 7.64668e-015 -90 -90   XYZ
    dof rx
    limits (0.0 90.0)
  end
  begin
     id 30
     name rthumb
     direction -0.707107 -6.34957e-011 0.707107   
     length 0.927273   
     axis -90 -45 1.62303e-014   XYZ
    dof rx rz
    limits (-45.0 45.0)
           (-45.0 45.0)
  end
:hierarchy
  begin
    root lhipjoint rhipjoint lowerback
    lhipjoint lfemur
    lfemur ltibia
    ltibia lfoot
    lfoot ltoes
    rhipjoint rfemur
    rfemur rtibia
    rtibia rfoot
    rfoot rtoes
    lowerback upperback
    upperback thorax
    thorax lowerneck lclavicle rclavicle
    lowerneck upperneck
    upperneck head
    lclavicle lhumerus
    lhumerus lradius
    lradius lwrist
    lwrist lhand lthumb
    lhand lfingers
    rclavicle rhumerus
    rhumerus rradius
    rradius rwrist
    rwrist rhand rthumb
    rhand rfingers
  end

#!OML:ASF E:\Style4\Style4.ASF
:FULLY-SPECIFIED
:DEGREES
625
root -0.481836 17.3931 -1.23707 -1.05487 -11.1371 2.78111
lowerback 11.4447 2.25563 -4.73722
upperback 10.5951 2.6124 -1.43801
thorax 4.61927 1.04713 0.949063
lowerneck 11.4875 -3.20931 -8.83547
upperneck 2.01946 -5.27468 4.11391
head -0.989936 -2.7572 3.11609
rclavicle -1.66979e-014 5.76476e-015
rhumerus 18.4804 20.2185 -84.1815
rradius 130.874
rwrist 25.6537
rhand 26.2078 -7.12637
rfingers 7.12502
rthumb 50.2676 -28.2074
lclavicle -1.66979e-014 5.76476e-015
lhumerus 18.7761 -27.3213 91.7102
lradius 134.603
lwrist -11.6941
lhand 24.5867 44.6214
lfingers 7.12502
lthumb 48.7815 66.4612
rfemur -21.6758 0.643772 18.5092
rtibia 43.1131
rfoot -19.961 -13.0455
rtoes -8.82135
lfemur -16.7078 9.8043 -19.1783
ltibia 39.8226
lfoot -22.6311 13.4611
ltoes -13.224
626
root -0.509607 17.3906 -1.24957 -0.954601 -10.6816 2.83198
lowerback 11.5326 2.09235 -5.12898
upperback 10.5114 2.35884 -1.34238
thorax 4.47948 0.897218 1.2827
lowerneck 11.4623 -2.83546 -9.6962
upperneck 2.23374 -4.88611 4.21992
head -0.922963 -2.57498 3.29778
rclavicle 1.98785e-015 -2.3059e-014
rhumerus 18.6994 20.404 -84.2689
rradius 131.615
rwrist 20.4706
rhand 32.3926 -8.97777
rfingers 7.12502
rthumb 55.8442 -26.4877
lclavicle 1.98785e-015 -2.3059e-014
lhumerus 18.4856 -26.4098 91.7749
lradius 134.774
lwrist -11.6051
lhand 24.5597 45.1143
lfingers 7.12502
lthumb 48.7566 66.9663
rfemur -21.7858 0.363163 18.5336
rtibia 43.1928
rfoot -20.0608 -13.1204
rtoes -8.49233
lfemur -16.9258 9.59722 -19.1764
ltibia 39.8129
lfoot -22.4878 13.299
ltoes -13.178
627
root -0.538534 17.3866 -1.2608 -0.871423 -10.2569 2.88135
lowerback 11.6406 2.29702 -5.17385
upperback 10.5304 2.62374 -1.44433
thorax 4.43034 1.03343 1.17632
lowerneck 11.4256 -2.96862 -9.50637
upperneck 2.29737 -5.03331 4.21873
head -0.888186 -2.64757 3.26296
rclavicle 5.02925e-014 -4.63168e-014
rhumerus 18.5529 20.3614 -84.104
rradius 131.508
rwrist 19.8693
rhand 33.5348 -9.18155
rfingers 7.12502
rthumb 56.8537 -25.8887
lclavicle 5.02925e-014 -4.63168e-014
lhumerus 18.5283 -26.5895 91.6748
lradius 134.875
lwrist -11.3303
lhand 24.4669 45.5872
lfingers 7.12502
lthumb 48.6713 67.4806
rfemur -21.8647 0.177225 18.5601
rtibia 43.2458
rfoot -20.1757 -13.2165
rtoes -7.74089
lfemur -17.1499 9.36927 -19.1515
ltibia 39.8709
lfoot -22.5102 13.0367
ltoes -12.5329
628
root -0.568584 17.3833 -1.26995 -0.77226 -9.80238 2.71027
lowerback 11.7224 2.45697 -5.00903
upperback 10.6012 2.84735 -1.45864
thorax 4.45691 1.15595 1.04971
lowerneck 11.435 -3.05591 -9.59769
upperneck 2.26655 -5.15607 4.43922
head -0.883674 -2.71289 3.3614
rclavicle 4.27387e-015 3.83654e-014
rhumerus 18.3029 20.1999 -84.0699
rradius 131.545
rwrist 19.6644
rhand 35.4701 -8.51678
rfingers 7.12502
rthumb 58.546 -23.738
lclavicle 4.27387e-015 3.83654e-014
lhumerus 18.6542 -26.4407 91.6029
lradius 135.019
lwrist -11.011
lhand 25.0801 45.9879
lfingers 7.12502
lthumb 49.2347 67.6034
rfemur -21.9087 -0.0223666 18.8442
rtibia 43.3048
rfoot -20.2552 -13.4255
rtoes -7.58291
lfemur -17.3463 9.14755 -18.8791
ltibia 39.9377
lfoot -22.5275 12.7967
ltoes -12.2808
629
root -0.598548 17.3823 -1.2799 -0.643894 -9.32113 2.51074
lowerback 11.6513 2.61549 -4.69147
upperback 10.7704 3.0963 -1.50199
thorax 4.68156 1.29677 0.814071
lowerneck 11.5218 -3.1635 -9.74531
upperneck 2.1001 -5.31682 4.79574
head -0.929695 -2.79839 3.52547
rclavicle -1.16289e-014 3.77691e-015
rhumerus 18.2108 19.8079 -84.0068
rradius 131.674
rwrist 19.4637
rhand 36.5039 -8.36931
rfingers 7.12502
rthumb 59.4394 -22.725
lclavicle -1.16289e-014 3.77691e-015
lhumerus 18.9805 -26.2724 91.4895
lradius 135.102
lwrist -10.6476
lhand 26.0459 46.2667
lfingers 7.12502
lthumb 50.1196 67.4264
rfemur -22.0056 -0.246938 19.1592
rtibia 43.3814
rfoot -20.3665 -13.6058
rtoes -7.37149
lfemur -17.5906 8.93657 -18.5893
ltibia 40.0155
lfoot -22.3957 12.675
ltoes -12.6035
630
root -0.628523 17.3805 -1.2878 -0.582863 -8.83499 2.55934
lowerback 11.5859 2.84454 -4.62352
upperback 10.9182 3.42057 -1.61511
thorax 4.87483 1.46437 0.638548
lowerneck 11.5543 -3.33486 -9.4542
upperneck 2.02025 -5.50659 4.8042
head -0.953176 -2.88955 3.48129
rclavicle -5.36719e-015 5.12864e-014
rhumerus 18.1183 19.2006 -83.9143
rradius 131.758
rwrist 19.0837
rhand 36.9359 -8.6779
rfingers 7.12502
rthumb 59.8104 -22.6558
lclavicle -5.36719e-015 5.12864e-014
lhumerus 19.2056 -26.3368 91.3964
lradius 135
lwrist -10.6466
lhand 26.4102 45.8181
lfingers 7.12502
lthumb 50.4526 66.7999
rfemur -22.1041 -0.459409 19.1965
rtibia 43.4922
rfoot -20.5192 -13.7518
rtoes -6.87919
lfemur -17.8199 8.7389 -18.5764
ltibia 40.1137
lfoot -22.1829 12.6574
ltoes -13.2918
631
root -0.657719 17.3743 -1.29511 -0.580489 -8.37093 2.63793
lowerback 11.7005 3.07981 -4.73015
upperback 10.9664 3.72215 -1.673
thorax 4.85271 1.61274 0.608772
lowerneck 11.6339 -3.46303 -9.08142
upperneck 1.98794 -5.63563 4.65638
head -0.980424 -2.94787 3.36643
rclavicle -3.27995e-014 4.17448e-015
rhumerus 17.8092 18.78 -83.8613
rradius 131.802
rwrist 18.8311
rhand 37.1663 -8.87282
rfingers 7.12502
rthumb 60.0075 -22.6452
lclavicle -3.27995e-014 4.17448e-015
lhumerus 19.1572 -26.6204 91.2826
lradius 134.855
lwrist -11.5652
lhand 25.8772 44.9131
lfingers 7.12502
lthumb 49.9653 66.1541
rfemur -22.1597 -0.670963 19.2038
rtibia 43.6526
rfoot -20.6732 -13.9106
rtoes -6.3259
lfemur -17.9811 8.58832 -18.5895
ltibia 40.2308
lfoot -22.0273 12.5066
ltoes -13.3989
632
root -0.685106 17.365 -1.30184 -0.530541 -7.93113 2.63473
lowerback 11.831 3.22513 -4.77814
upperback 11.0105 3.90604 -1.68562
thorax 4.82167 1.70402 0.601554
lowerneck 11.6794 -3.5247 -9.0195
upperneck 1.96745 -5.71167 4.6304
head -0.991456 -2.98421 3.35011
rclavicle 4.87022e-015 1.21259e-014
rhumerus 17.5295 18.6451 -83.8175
rradius 131.916
rwrist 18.6688
rhand 37.4056 -9.00554
rfingers 7.12502
rthumb 60.212 -22.5614
lclavicle 4.87022e-015 1.21259e-014
lhumerus 19.0862 -26.9622 91.0108
lradius 134.776
lwrist -13.02
lhand 24.6925 44.2322
lfingers 7.12502
lthumb 48.8787 66.0244
rfemur -22.2836 -0.889514 19.2902
rtibia 43.8682
rfoot -20.7931 -14.0661
rtoes -6.10229
lfemur -18.1668 8.46311 -18.5162
ltibia 40.3447
lfoot -21.9819 12.22
ltoes -12.9436
633
root -0.713235 17.3563 -1.30759 -0.470102 -7.47284 2.71261
lowerback 11.8675 3.31069 -4.92254
upperback 11.1289 4.01316 -1.67719
thorax 4.91971 1.74595 0.682454
lowerneck 11.5026 -3.51721 -9.12025
upperneck 2.09936 -5.70004 4.557
head -0.916805 -2.97762 3.33345
rclavicle 1.38155e-014 2.82274e-014
rhumerus 17.4663 18.6131 -83.7684
rradius 132.053
rwrist 18.4183
rhand 37.8199 -9.22167
rfingers 7.12502
rthumb 60.5647 -22.3951
lclavicle 1.38155e-014 2.82274e-014
lhumerus 19.0963 -26.9246 90.8177
lradius 134.785
lwrist -13.7401
lhand 24.1264 44.0867
lfingers 7.12502
lthumb 48.3579 66.1308
rfemur -22.4481 -1.04802 19.2923
rtibia 44.1219
rfoot -20.9062 -14.2071
rtoes -5.53539
lfemur -18.3863 8.30179 -18.5312
ltibia 40.4587
lfoot -21.9302 11.9522
ltoes -12.6336
634
root -0.740606 17.3491 -1.31065 -0.43616 -6.95407 2.89987
lowerback 11.79 3.41323 -5.0866
upperback 11.2772 4.1531 -1.69564
thorax 5.11183 1.80181 0.750656
lowerneck 11.5046 -3.52438 -9.21144
upperneck 2.16316 -5.71993 4.53221
head -0.892759 -2.9879 3.34111
rclavicle -1.16289e-014 3.37934e-014
rhumerus 17.3436 18.4712 -83.7424
rradius 132.208
rwrist 18.2999
rhand 38.0914 -9.70789
rfingers 7.12502
rthumb 60.7951 -22.6255
lclavicle -1.16289e-014 3.37934e-014
lhumerus 19.0785 -26.7695 90.7582
lradius 134.874
lwrist -13.5686
lhand 24.0869 44.4868
lfingers 7.12502
lthumb 48.3215 66.5482
rfemur -22.5886 -1.27458 19.1712
rtibia 44.3926
rfoot -21.0281 -14.4359
rtoes -5.22302
lfemur -18.5959 8.09204 -18.6665
ltibia 40.5706
lfoot -21.9012 11.6732
ltoes -12.202
